<svg width="90" height="93" viewBox="0 0 90 93" fill="none" xmlns="http://www.w3.org/2000/svg">
<path d="M64.0776 18.199L72.9886 27.7394L87.4797 12.3216C90.1958 9.432 91.3289 6.11655 87.7247 2.86752C83.8411 -0.633482 81.7186 0.663724 78.6969 3.66743L64.0776 18.199Z" fill="#009FE3"/>
<path d="M13.608 29.6369L40.3096 2.46654C43.8389 -0.573698 45.4415 -0.948124 48.9757 2.15604L86.093 40.6314C88.8206 43.4586 91.127 46.9161 87.7571 50.6985C84.3667 54.505 80.567 52.6072 77.7666 49.7695L64.2308 36.054L50.4685 50.3311C47.7799 53.1206 43.97 54.3751 40.8299 50.8803C37.5698 47.2531 38.8893 44.0568 41.6582 41.1693L55.0469 27.2131L44.0261 16.5112L22.3986 38.4259C19.3491 41.5164 14.9046 44.9161 11.2143 39.8128C8.01155 35.3853 10.6498 32.6464 13.608 29.6369Z" fill="#009640"/>
<path d="M2.42067 51.3203C15.2948 64.4729 28.1694 77.6247 41.0431 90.7778C43.5651 93.0496 46.0874 93.0496 48.6093 90.7778C58.277 80.9813 67.9447 71.1856 77.6124 61.3891C80.1929 58.7752 80.2269 55.3709 77.2654 52.5727C73.7234 49.2249 71.3121 50.5665 68.5456 53.3514L45.0784 76.978C33.9617 65.8171 22.845 54.6573 11.7283 43.4968C8.80081 40.5574 5.41246 38.3649 1.73858 42.4462C-1.14875 45.6533 -0.102872 48.7421 2.42067 51.3203Z" fill="#F8CA1B"/>
</svg>
